<mxfile host="app.diagrams.net" agent="Mozilla/5.0 (Macintosh; Intel Mac OS X 10_15_7) AppleWebKit/605.1.15 (KHTML, like Gecko) Version/18.0.1 Safari/605.1.15" version="26.0.16">
  <diagram name="Page-1" id="e8-9PBjmjHmJ50nXZuNR">
    <mxGraphModel dx="3180" dy="2157" grid="1" gridSize="10" guides="1" tooltips="1" connect="1" arrows="1" fold="1" page="1" pageScale="1" pageWidth="4681" pageHeight="3300" math="0" shadow="0">
      <root>
        <mxCell id="0" />
        <mxCell id="1" parent="0" />
        <mxCell id="BtOoT9dO2cWIdR1cvxDf-1" style="edgeStyle=orthogonalEdgeStyle;rounded=0;orthogonalLoop=1;jettySize=auto;html=1;exitX=0.5;exitY=1;exitDx=0;exitDy=0;entryX=0.5;entryY=0;entryDx=0;entryDy=0;strokeWidth=10;" parent="1" source="BtOoT9dO2cWIdR1cvxDf-79" target="BtOoT9dO2cWIdR1cvxDf-13" edge="1">
          <mxGeometry relative="1" as="geometry" />
        </mxCell>
        <mxCell id="BtOoT9dO2cWIdR1cvxDf-2" style="edgeStyle=orthogonalEdgeStyle;rounded=0;orthogonalLoop=1;jettySize=auto;html=1;fontSize=15;" parent="1" source="BtOoT9dO2cWIdR1cvxDf-3" edge="1">
          <mxGeometry relative="1" as="geometry">
            <mxPoint x="930" y="1653" as="targetPoint" />
          </mxGeometry>
        </mxCell>
        <mxCell id="BtOoT9dO2cWIdR1cvxDf-3" value="Define work instructions&amp;nbsp;" style="shape=parallelogram;perimeter=parallelogramPerimeter;whiteSpace=wrap;html=1;fixedSize=1;fillColor=#eeeeee;strokeColor=#36393d;flipH=0;flipV=0;fontSize=15;" parent="1" vertex="1">
          <mxGeometry x="870" y="1513" width="120" height="60" as="geometry" />
        </mxCell>
        <mxCell id="BtOoT9dO2cWIdR1cvxDf-4" value="Yes" style="edgeStyle=orthogonalEdgeStyle;rounded=0;orthogonalLoop=1;jettySize=auto;html=1;fontSize=15;" parent="1" source="BtOoT9dO2cWIdR1cvxDf-80" target="BtOoT9dO2cWIdR1cvxDf-3" edge="1">
          <mxGeometry relative="1" as="geometry" />
        </mxCell>
        <mxCell id="BtOoT9dO2cWIdR1cvxDf-5" style="edgeStyle=orthogonalEdgeStyle;rounded=0;orthogonalLoop=1;jettySize=auto;html=1;entryX=0.5;entryY=0;entryDx=0;entryDy=0;" parent="1" edge="1">
          <mxGeometry relative="1" as="geometry">
            <mxPoint x="1462" y="623" as="sourcePoint" />
            <mxPoint x="1462" y="713" as="targetPoint" />
          </mxGeometry>
        </mxCell>
        <mxCell id="BtOoT9dO2cWIdR1cvxDf-6" value="&lt;font style=&quot;font-size: 25px;&quot;&gt;User&lt;/font&gt;" style="shape=umlActor;verticalLabelPosition=bottom;verticalAlign=top;html=1;outlineConnect=0;container=0;" parent="1" vertex="1">
          <mxGeometry x="1432" y="270" width="60" height="100" as="geometry" />
        </mxCell>
        <mxCell id="BtOoT9dO2cWIdR1cvxDf-7" style="edgeStyle=orthogonalEdgeStyle;rounded=0;orthogonalLoop=1;jettySize=auto;html=1;fontSize=15;" parent="1" source="BtOoT9dO2cWIdR1cvxDf-13" target="BtOoT9dO2cWIdR1cvxDf-99" edge="1">
          <mxGeometry relative="1" as="geometry" />
        </mxCell>
        <mxCell id="BtOoT9dO2cWIdR1cvxDf-8" style="edgeStyle=orthogonalEdgeStyle;rounded=0;orthogonalLoop=1;jettySize=auto;html=1;entryX=0.5;entryY=0;entryDx=0;entryDy=0;fontSize=15;" parent="1" source="BtOoT9dO2cWIdR1cvxDf-13" target="BtOoT9dO2cWIdR1cvxDf-15" edge="1">
          <mxGeometry relative="1" as="geometry" />
        </mxCell>
        <mxCell id="BtOoT9dO2cWIdR1cvxDf-9" style="edgeStyle=orthogonalEdgeStyle;rounded=0;orthogonalLoop=1;jettySize=auto;html=1;entryX=0.5;entryY=0;entryDx=0;entryDy=0;fontSize=15;" parent="1" source="BtOoT9dO2cWIdR1cvxDf-13" target="BtOoT9dO2cWIdR1cvxDf-37" edge="1">
          <mxGeometry relative="1" as="geometry" />
        </mxCell>
        <mxCell id="BtOoT9dO2cWIdR1cvxDf-10" style="edgeStyle=orthogonalEdgeStyle;rounded=0;orthogonalLoop=1;jettySize=auto;html=1;entryX=0.5;entryY=0;entryDx=0;entryDy=0;dashed=1;jumpStyle=none;fontSize=15;" parent="1" source="BtOoT9dO2cWIdR1cvxDf-13" target="BtOoT9dO2cWIdR1cvxDf-47" edge="1">
          <mxGeometry relative="1" as="geometry" />
        </mxCell>
        <mxCell id="BtOoT9dO2cWIdR1cvxDf-11" style="edgeStyle=orthogonalEdgeStyle;rounded=0;orthogonalLoop=1;jettySize=auto;html=1;entryX=0.5;entryY=0;entryDx=0;entryDy=0;fontSize=15;" parent="1" source="BtOoT9dO2cWIdR1cvxDf-13" target="BtOoT9dO2cWIdR1cvxDf-68" edge="1">
          <mxGeometry relative="1" as="geometry" />
        </mxCell>
        <mxCell id="BtOoT9dO2cWIdR1cvxDf-12" style="edgeStyle=orthogonalEdgeStyle;rounded=0;orthogonalLoop=1;jettySize=auto;html=1;entryX=0.5;entryY=0;entryDx=0;entryDy=0;dashed=1;" parent="1" source="BtOoT9dO2cWIdR1cvxDf-13" target="BtOoT9dO2cWIdR1cvxDf-112" edge="1">
          <mxGeometry relative="1" as="geometry" />
        </mxCell>
        <mxCell id="BtOoT9dO2cWIdR1cvxDf-13" value="Dashboard" style="rounded=0;whiteSpace=wrap;html=1;container=0;flipH=0;flipV=0;fontSize=15;" parent="1" vertex="1">
          <mxGeometry x="1402" y="713" width="120" height="60" as="geometry" />
        </mxCell>
        <mxCell id="BtOoT9dO2cWIdR1cvxDf-14" style="edgeStyle=orthogonalEdgeStyle;rounded=0;orthogonalLoop=1;jettySize=auto;html=1;exitX=0.5;exitY=1;exitDx=0;exitDy=0;entryX=0.5;entryY=0;entryDx=0;entryDy=0;fontSize=15;" parent="1" source="BtOoT9dO2cWIdR1cvxDf-15" target="BtOoT9dO2cWIdR1cvxDf-28" edge="1">
          <mxGeometry relative="1" as="geometry" />
        </mxCell>
        <mxCell id="BtOoT9dO2cWIdR1cvxDf-15" value="View Agents" style="rounded=0;whiteSpace=wrap;html=1;container=0;flipH=0;flipV=0;fontSize=15;" parent="1" vertex="1">
          <mxGeometry x="1605" y="853" width="120" height="60" as="geometry" />
        </mxCell>
        <mxCell id="BtOoT9dO2cWIdR1cvxDf-16" value="No" style="edgeStyle=orthogonalEdgeStyle;rounded=0;orthogonalLoop=1;jettySize=auto;html=1;exitX=0;exitY=0.5;exitDx=0;exitDy=0;entryX=0.5;entryY=0;entryDx=0;entryDy=0;fontSize=15;" parent="1" source="BtOoT9dO2cWIdR1cvxDf-100" target="BtOoT9dO2cWIdR1cvxDf-19" edge="1">
          <mxGeometry x="0.2941" relative="1" as="geometry">
            <mxPoint as="offset" />
          </mxGeometry>
        </mxCell>
        <mxCell id="BtOoT9dO2cWIdR1cvxDf-17" value="Yes" style="edgeStyle=orthogonalEdgeStyle;rounded=0;orthogonalLoop=1;jettySize=auto;html=1;entryX=0.5;entryY=0;entryDx=0;entryDy=0;fontSize=15;" parent="1" source="BtOoT9dO2cWIdR1cvxDf-100" target="BtOoT9dO2cWIdR1cvxDf-24" edge="1">
          <mxGeometry x="0.3333" relative="1" as="geometry">
            <mxPoint as="offset" />
          </mxGeometry>
        </mxCell>
        <mxCell id="BtOoT9dO2cWIdR1cvxDf-18" style="edgeStyle=orthogonalEdgeStyle;rounded=0;orthogonalLoop=1;jettySize=auto;html=1;exitX=0.5;exitY=1;exitDx=0;exitDy=0;entryX=0.5;entryY=0;entryDx=0;entryDy=0;fontSize=15;" parent="1" source="BtOoT9dO2cWIdR1cvxDf-19" target="BtOoT9dO2cWIdR1cvxDf-48" edge="1">
          <mxGeometry relative="1" as="geometry">
            <mxPoint x="1140" y="1303" as="targetPoint" />
          </mxGeometry>
        </mxCell>
        <mxCell id="BtOoT9dO2cWIdR1cvxDf-19" value="Create New Squad" style="rounded=0;whiteSpace=wrap;html=1;container=0;flipH=0;flipV=0;fontSize=15;" parent="1" vertex="1">
          <mxGeometry x="1080" y="1153" width="120" height="60" as="geometry" />
        </mxCell>
        <mxCell id="BtOoT9dO2cWIdR1cvxDf-20" value="Yes" style="edgeStyle=orthogonalEdgeStyle;rounded=0;orthogonalLoop=1;jettySize=auto;html=1;exitX=0.5;exitY=1;exitDx=0;exitDy=0;entryX=1;entryY=0.5;entryDx=0;entryDy=0;fontSize=15;" parent="1" source="BtOoT9dO2cWIdR1cvxDf-22" target="BtOoT9dO2cWIdR1cvxDf-84" edge="1">
          <mxGeometry x="-0.5593" relative="1" as="geometry">
            <mxPoint x="1270" y="1683" as="targetPoint" />
            <Array as="points">
              <mxPoint x="1350" y="1683" />
            </Array>
            <mxPoint y="-1" as="offset" />
          </mxGeometry>
        </mxCell>
        <mxCell id="BtOoT9dO2cWIdR1cvxDf-21" value="No" style="edgeStyle=orthogonalEdgeStyle;rounded=0;orthogonalLoop=1;jettySize=auto;html=1;entryX=0;entryY=0.5;entryDx=0;entryDy=0;strokeColor=default;startArrow=none;startFill=0;fontSize=15;" parent="1" source="BtOoT9dO2cWIdR1cvxDf-22" target="BtOoT9dO2cWIdR1cvxDf-30" edge="1">
          <mxGeometry relative="1" as="geometry" />
        </mxCell>
        <mxCell id="BtOoT9dO2cWIdR1cvxDf-22" value="Has&amp;nbsp;&lt;div&gt;required Agents?&lt;/div&gt;" style="rhombus;whiteSpace=wrap;html=1;fillColor=#f9f7ed;strokeColor=#36393d;container=0;flipH=0;flipV=0;fontSize=15;" parent="1" vertex="1">
          <mxGeometry x="1305" y="1318" width="90" height="90" as="geometry" />
        </mxCell>
        <mxCell id="BtOoT9dO2cWIdR1cvxDf-23" style="edgeStyle=orthogonalEdgeStyle;rounded=0;orthogonalLoop=1;jettySize=auto;html=1;entryX=0.5;entryY=0;entryDx=0;entryDy=0;fontSize=15;" parent="1" source="BtOoT9dO2cWIdR1cvxDf-24" target="BtOoT9dO2cWIdR1cvxDf-22" edge="1">
          <mxGeometry relative="1" as="geometry" />
        </mxCell>
        <mxCell id="BtOoT9dO2cWIdR1cvxDf-24" value="Manage Squad" style="rounded=0;whiteSpace=wrap;html=1;container=0;flipH=0;flipV=0;fontSize=15;" parent="1" vertex="1">
          <mxGeometry x="1290" y="1153" width="120" height="60" as="geometry" />
        </mxCell>
        <mxCell id="BtOoT9dO2cWIdR1cvxDf-25" value="No" style="edgeStyle=orthogonalEdgeStyle;rounded=0;orthogonalLoop=1;jettySize=auto;html=1;exitX=0;exitY=0.5;exitDx=0;exitDy=0;fontSize=15;" parent="1" source="BtOoT9dO2cWIdR1cvxDf-28" target="BtOoT9dO2cWIdR1cvxDf-30" edge="1">
          <mxGeometry x="0.5238" relative="1" as="geometry">
            <mxPoint as="offset" />
          </mxGeometry>
        </mxCell>
        <mxCell id="BtOoT9dO2cWIdR1cvxDf-26" style="edgeStyle=orthogonalEdgeStyle;rounded=0;orthogonalLoop=1;jettySize=auto;html=1;exitX=1;exitY=0.5;exitDx=0;exitDy=0;fontSize=15;" parent="1" source="BtOoT9dO2cWIdR1cvxDf-28" target="BtOoT9dO2cWIdR1cvxDf-32" edge="1">
          <mxGeometry relative="1" as="geometry" />
        </mxCell>
        <mxCell id="BtOoT9dO2cWIdR1cvxDf-27" value="Yes" style="edgeLabel;html=1;align=center;verticalAlign=middle;resizable=0;points=[];container=0;fontSize=15;" parent="BtOoT9dO2cWIdR1cvxDf-26" connectable="0" vertex="1">
          <mxGeometry x="0.4476" y="1" relative="1" as="geometry">
            <mxPoint as="offset" />
          </mxGeometry>
        </mxCell>
        <mxCell id="BtOoT9dO2cWIdR1cvxDf-28" value="Has agents?" style="rhombus;whiteSpace=wrap;html=1;fillColor=#f9f7ed;strokeColor=#36393d;container=0;flipH=0;flipV=0;fontSize=15;" parent="1" vertex="1">
          <mxGeometry x="1625" y="998" width="80" height="80" as="geometry" />
        </mxCell>
        <mxCell id="BtOoT9dO2cWIdR1cvxDf-29" value="" style="edgeStyle=orthogonalEdgeStyle;rounded=0;orthogonalLoop=1;jettySize=auto;html=1;entryX=0.5;entryY=0;entryDx=0;entryDy=0;fontSize=15;" parent="1" source="BtOoT9dO2cWIdR1cvxDf-30" target="BtOoT9dO2cWIdR1cvxDf-61" edge="1">
          <mxGeometry relative="1" as="geometry">
            <mxPoint x="1535" y="1293" as="targetPoint" />
          </mxGeometry>
        </mxCell>
        <mxCell id="BtOoT9dO2cWIdR1cvxDf-30" value="Create new agents" style="rounded=0;whiteSpace=wrap;html=1;container=0;flipH=0;flipV=0;fontSize=15;" parent="1" vertex="1">
          <mxGeometry x="1470" y="1153" width="120" height="60" as="geometry" />
        </mxCell>
        <mxCell id="BtOoT9dO2cWIdR1cvxDf-31" style="edgeStyle=orthogonalEdgeStyle;rounded=0;orthogonalLoop=1;jettySize=auto;html=1;fontSize=15;" parent="1" source="BtOoT9dO2cWIdR1cvxDf-32" target="BtOoT9dO2cWIdR1cvxDf-34" edge="1">
          <mxGeometry relative="1" as="geometry" />
        </mxCell>
        <mxCell id="BtOoT9dO2cWIdR1cvxDf-32" value="Manage agents" style="rounded=0;whiteSpace=wrap;html=1;container=0;flipH=0;flipV=0;fontSize=15;" parent="1" vertex="1">
          <mxGeometry x="1740" y="1153" width="120" height="60" as="geometry" />
        </mxCell>
        <mxCell id="BtOoT9dO2cWIdR1cvxDf-33" value="Yes" style="edgeStyle=orthogonalEdgeStyle;rounded=0;orthogonalLoop=1;jettySize=auto;html=1;exitX=0.5;exitY=1;exitDx=0;exitDy=0;entryX=0.5;entryY=0;entryDx=0;entryDy=0;fontSize=15;" parent="1" source="BtOoT9dO2cWIdR1cvxDf-34" target="BtOoT9dO2cWIdR1cvxDf-85" edge="1">
          <mxGeometry relative="1" as="geometry">
            <mxPoint x="1670" y="1513" as="targetPoint" />
          </mxGeometry>
        </mxCell>
        <mxCell id="BtOoT9dO2cWIdR1cvxDf-34" value="Has&amp;nbsp;&lt;div&gt;required&amp;nbsp;&lt;/div&gt;&lt;div&gt;Tools?&lt;/div&gt;" style="rhombus;whiteSpace=wrap;html=1;fillColor=#f9f7ed;strokeColor=#36393d;container=0;flipH=0;flipV=0;fontSize=15;" parent="1" vertex="1">
          <mxGeometry x="1625" y="1318" width="90" height="90" as="geometry" />
        </mxCell>
        <mxCell id="BtOoT9dO2cWIdR1cvxDf-35" style="rounded=0;orthogonalLoop=1;jettySize=auto;html=1;entryX=1;entryY=1;entryDx=0;entryDy=0;exitX=0;exitY=0;exitDx=0;exitDy=0;fontSize=15;" parent="1" source="BtOoT9dO2cWIdR1cvxDf-85" target="BtOoT9dO2cWIdR1cvxDf-22" edge="1">
          <mxGeometry relative="1" as="geometry">
            <mxPoint x="1609" y="1513" as="sourcePoint" />
          </mxGeometry>
        </mxCell>
        <mxCell id="BtOoT9dO2cWIdR1cvxDf-36" style="edgeStyle=orthogonalEdgeStyle;rounded=0;orthogonalLoop=1;jettySize=auto;html=1;exitX=0.5;exitY=1;exitDx=0;exitDy=0;entryX=0.5;entryY=0;entryDx=0;entryDy=0;fontSize=15;" parent="1" source="BtOoT9dO2cWIdR1cvxDf-37" target="BtOoT9dO2cWIdR1cvxDf-42" edge="1">
          <mxGeometry relative="1" as="geometry" />
        </mxCell>
        <mxCell id="BtOoT9dO2cWIdR1cvxDf-37" value="View Tools" style="rounded=0;whiteSpace=wrap;html=1;container=0;flipH=0;flipV=0;fontSize=15;" parent="1" vertex="1">
          <mxGeometry x="2130" y="853" width="120" height="60" as="geometry" />
        </mxCell>
        <mxCell id="BtOoT9dO2cWIdR1cvxDf-38" style="edgeStyle=orthogonalEdgeStyle;rounded=0;orthogonalLoop=1;jettySize=auto;html=1;entryX=0.5;entryY=0;entryDx=0;entryDy=0;fontSize=15;" parent="1" source="BtOoT9dO2cWIdR1cvxDf-42" target="BtOoT9dO2cWIdR1cvxDf-56" edge="1">
          <mxGeometry relative="1" as="geometry" />
        </mxCell>
        <mxCell id="BtOoT9dO2cWIdR1cvxDf-39" value="No" style="edgeLabel;html=1;align=center;verticalAlign=middle;resizable=0;points=[];container=0;fontSize=15;" parent="BtOoT9dO2cWIdR1cvxDf-38" connectable="0" vertex="1">
          <mxGeometry x="0.3683" relative="1" as="geometry">
            <mxPoint as="offset" />
          </mxGeometry>
        </mxCell>
        <mxCell id="BtOoT9dO2cWIdR1cvxDf-40" style="edgeStyle=orthogonalEdgeStyle;rounded=0;orthogonalLoop=1;jettySize=auto;html=1;fontSize=15;" parent="1" source="BtOoT9dO2cWIdR1cvxDf-42" target="BtOoT9dO2cWIdR1cvxDf-58" edge="1">
          <mxGeometry relative="1" as="geometry" />
        </mxCell>
        <mxCell id="BtOoT9dO2cWIdR1cvxDf-41" value="Yes" style="edgeLabel;html=1;align=center;verticalAlign=middle;resizable=0;points=[];container=0;fontSize=15;" parent="BtOoT9dO2cWIdR1cvxDf-40" connectable="0" vertex="1">
          <mxGeometry x="0.4677" relative="1" as="geometry">
            <mxPoint as="offset" />
          </mxGeometry>
        </mxCell>
        <mxCell id="BtOoT9dO2cWIdR1cvxDf-42" value="Has tools?" style="rhombus;whiteSpace=wrap;html=1;fillColor=#f9f7ed;strokeColor=#36393d;container=0;flipH=0;flipV=0;fontSize=15;" parent="1" vertex="1">
          <mxGeometry x="2150" y="993" width="80" height="80" as="geometry" />
        </mxCell>
        <mxCell id="BtOoT9dO2cWIdR1cvxDf-43" style="edgeStyle=orthogonalEdgeStyle;rounded=0;orthogonalLoop=1;jettySize=auto;html=1;entryX=0;entryY=0.5;entryDx=0;entryDy=0;fontSize=15;" parent="1" source="BtOoT9dO2cWIdR1cvxDf-48" target="BtOoT9dO2cWIdR1cvxDf-22" edge="1">
          <mxGeometry relative="1" as="geometry" />
        </mxCell>
        <mxCell id="BtOoT9dO2cWIdR1cvxDf-44" style="edgeStyle=orthogonalEdgeStyle;rounded=0;orthogonalLoop=1;jettySize=auto;html=1;entryX=0;entryY=0.5;entryDx=0;entryDy=0;fontSize=15;" parent="1" source="BtOoT9dO2cWIdR1cvxDf-61" target="BtOoT9dO2cWIdR1cvxDf-34" edge="1">
          <mxGeometry relative="1" as="geometry" />
        </mxCell>
        <mxCell id="BtOoT9dO2cWIdR1cvxDf-45" style="rounded=0;orthogonalLoop=1;jettySize=auto;html=1;exitX=0;exitY=0;exitDx=0;exitDy=0;entryX=1;entryY=1;entryDx=0;entryDy=0;fontSize=15;" parent="1" source="BtOoT9dO2cWIdR1cvxDf-86" target="BtOoT9dO2cWIdR1cvxDf-34" edge="1">
          <mxGeometry relative="1" as="geometry" />
        </mxCell>
        <mxCell id="BtOoT9dO2cWIdR1cvxDf-46" style="edgeStyle=orthogonalEdgeStyle;rounded=0;orthogonalLoop=1;jettySize=auto;html=1;entryX=0.5;entryY=0;entryDx=0;entryDy=0;dashed=1;fontSize=15;" parent="1" source="BtOoT9dO2cWIdR1cvxDf-47" target="BtOoT9dO2cWIdR1cvxDf-60" edge="1">
          <mxGeometry relative="1" as="geometry" />
        </mxCell>
        <mxCell id="BtOoT9dO2cWIdR1cvxDf-47" value="Create tools spec" style="rounded=0;whiteSpace=wrap;html=1;container=0;flipH=0;flipV=0;fontSize=15;" parent="1" vertex="1">
          <mxGeometry x="2550" y="853" width="120" height="60" as="geometry" />
        </mxCell>
        <mxCell id="BtOoT9dO2cWIdR1cvxDf-48" value="&lt;span style=&quot;caret-color: rgb(0, 0, 0); color: rgb(0, 0, 0); font-family: Helvetica; font-style: normal; font-variant-caps: normal; font-weight: 400; letter-spacing: normal; text-align: center; text-indent: 0px; text-transform: none; white-space: normal; word-spacing: 0px; -webkit-text-stroke-width: 0px; text-decoration: none; float: none; display: inline !important;&quot;&gt;Edit Squad&lt;/span&gt;&lt;div&gt;&lt;span&gt;&lt;span style=&quot;caret-color: rgb(0, 0, 0); color: rgb(0, 0, 0); font-family: Helvetica; font-style: normal; font-variant-caps: normal; font-weight: 400; letter-spacing: normal; text-align: center; text-indent: 0px; text-transform: none; white-space: normal; word-spacing: 0px; -webkit-text-stroke-width: 0px; text-decoration: none; float: none; display: inline !important;&quot;&gt;&amp;nbsp;information&lt;/span&gt;&amp;nbsp;&lt;/span&gt;&lt;div&gt;&lt;div style=&quot;caret-color: rgb(0, 0, 0); color: rgb(0, 0, 0); font-family: Helvetica; font-style: normal; font-variant-caps: normal; font-weight: 400; letter-spacing: normal; text-align: center; text-indent: 0px; text-transform: none; white-space: normal; word-spacing: 0px; -webkit-text-stroke-width: 0px; text-decoration: none;&quot;&gt;&lt;span&gt;(Name, description,&lt;/span&gt;&lt;/div&gt;&lt;div style=&quot;caret-color: rgb(0, 0, 0); color: rgb(0, 0, 0); font-family: Helvetica; font-style: normal; font-variant-caps: normal; font-weight: 400; letter-spacing: normal; text-align: center; text-indent: 0px; text-transform: none; white-space: normal; word-spacing: 0px; -webkit-text-stroke-width: 0px; text-decoration: none;&quot;&gt;&lt;span&gt;&amp;nbsp;type, agents)&lt;/span&gt;&lt;/div&gt;&lt;/div&gt;&lt;/div&gt;" style="shape=parallelogram;perimeter=parallelogramPerimeter;whiteSpace=wrap;html=1;fixedSize=1;fillColor=#f5f5f5;strokeColor=#666666;fontColor=#333333;container=0;flipH=0;flipV=0;fontSize=15;" parent="1" vertex="1">
          <mxGeometry x="1070" y="1328" width="140" height="70" as="geometry" />
        </mxCell>
        <mxCell id="BtOoT9dO2cWIdR1cvxDf-49" style="edgeStyle=orthogonalEdgeStyle;rounded=0;orthogonalLoop=1;jettySize=auto;html=1;entryX=0.5;entryY=0;entryDx=0;entryDy=0;fontSize=15;" parent="1" source="BtOoT9dO2cWIdR1cvxDf-50" target="BtOoT9dO2cWIdR1cvxDf-54" edge="1">
          <mxGeometry relative="1" as="geometry" />
        </mxCell>
        <mxCell id="BtOoT9dO2cWIdR1cvxDf-50" value="&lt;span style=&quot;caret-color: rgb(0, 0, 0); color: rgb(0, 0, 0); font-family: Helvetica; font-style: normal; font-variant-caps: normal; font-weight: 400; letter-spacing: normal; text-align: center; text-indent: 0px; text-transform: none; white-space: normal; word-spacing: 0px; -webkit-text-stroke-width: 0px; text-decoration: none; float: none; display: inline !important;&quot;&gt;Edit Tool&lt;/span&gt;&lt;div&gt;&lt;span&gt;&lt;span style=&quot;caret-color: rgb(0, 0, 0); color: rgb(0, 0, 0); font-family: Helvetica; font-style: normal; font-variant-caps: normal; font-weight: 400; letter-spacing: normal; text-align: center; text-indent: 0px; text-transform: none; white-space: normal; word-spacing: 0px; -webkit-text-stroke-width: 0px; text-decoration: none; float: none; display: inline !important;&quot;&gt;&amp;nbsp;information&lt;/span&gt;&amp;nbsp;&lt;/span&gt;&lt;div&gt;&lt;div style=&quot;caret-color: rgb(0, 0, 0); color: rgb(0, 0, 0); font-family: Helvetica; font-style: normal; font-variant-caps: normal; font-weight: 400; letter-spacing: normal; text-align: center; text-indent: 0px; text-transform: none; white-space: normal; word-spacing: 0px; -webkit-text-stroke-width: 0px; text-decoration: none;&quot;&gt;&lt;span&gt;(Tool-id, Toolspec,&lt;/span&gt;&lt;/div&gt;&lt;div style=&quot;caret-color: rgb(0, 0, 0); color: rgb(0, 0, 0); font-family: Helvetica; font-style: normal; font-variant-caps: normal; font-weight: 400; letter-spacing: normal; text-align: center; text-indent: 0px; text-transform: none; white-space: normal; word-spacing: 0px; -webkit-text-stroke-width: 0px; text-decoration: none;&quot;&gt;&lt;span&gt;&amp;nbsp;Name, Description&lt;span style=&quot;caret-color: rgb(0, 0, 0); color: rgb(0, 0, 0);&quot;&gt;)&lt;/span&gt;&lt;/span&gt;&lt;/div&gt;&lt;/div&gt;&lt;/div&gt;" style="shape=parallelogram;perimeter=parallelogramPerimeter;whiteSpace=wrap;html=1;fixedSize=1;fillColor=#f5f5f5;strokeColor=#666666;fontColor=#333333;container=0;flipH=0;flipV=0;fontSize=15;" parent="1" vertex="1">
          <mxGeometry x="2010" y="1253" width="140" height="70" as="geometry" />
        </mxCell>
        <mxCell id="BtOoT9dO2cWIdR1cvxDf-51" value="Yes" style="edgeStyle=orthogonalEdgeStyle;rounded=0;orthogonalLoop=1;jettySize=auto;html=1;entryX=0.5;entryY=0;entryDx=0;entryDy=0;fontSize=15;" parent="1" source="BtOoT9dO2cWIdR1cvxDf-54" target="BtOoT9dO2cWIdR1cvxDf-86" edge="1">
          <mxGeometry relative="1" as="geometry" />
        </mxCell>
        <mxCell id="BtOoT9dO2cWIdR1cvxDf-52" style="edgeStyle=orthogonalEdgeStyle;rounded=0;orthogonalLoop=1;jettySize=auto;html=1;entryX=0;entryY=0.5;entryDx=0;entryDy=0;dashed=1;exitX=1;exitY=0.5;exitDx=0;exitDy=0;fontSize=15;" parent="1" source="BtOoT9dO2cWIdR1cvxDf-54" target="BtOoT9dO2cWIdR1cvxDf-47" edge="1">
          <mxGeometry relative="1" as="geometry">
            <mxPoint x="2530" y="983" as="targetPoint" />
            <Array as="points">
              <mxPoint x="2480" y="1403" />
              <mxPoint x="2480" y="883" />
            </Array>
          </mxGeometry>
        </mxCell>
        <mxCell id="BtOoT9dO2cWIdR1cvxDf-53" value="No" style="edgeLabel;html=1;align=center;verticalAlign=middle;resizable=0;points=[];container=0;fontSize=15;" parent="BtOoT9dO2cWIdR1cvxDf-52" connectable="0" vertex="1">
          <mxGeometry x="-0.7426" y="-3" relative="1" as="geometry">
            <mxPoint x="-58" y="-3" as="offset" />
          </mxGeometry>
        </mxCell>
        <mxCell id="BtOoT9dO2cWIdR1cvxDf-54" value="Has Tool spec?" style="rhombus;whiteSpace=wrap;html=1;fillColor=#f9f7ed;strokeColor=#36393d;container=0;flipH=0;flipV=0;fontSize=15;" parent="1" vertex="1">
          <mxGeometry x="2040" y="1363" width="80" height="80" as="geometry" />
        </mxCell>
        <mxCell id="BtOoT9dO2cWIdR1cvxDf-55" style="edgeStyle=orthogonalEdgeStyle;rounded=0;orthogonalLoop=1;jettySize=auto;html=1;entryX=0.5;entryY=0;entryDx=0;entryDy=0;fontSize=15;" parent="1" source="BtOoT9dO2cWIdR1cvxDf-56" target="BtOoT9dO2cWIdR1cvxDf-50" edge="1">
          <mxGeometry relative="1" as="geometry" />
        </mxCell>
        <mxCell id="BtOoT9dO2cWIdR1cvxDf-56" value="Create Tool" style="rounded=0;whiteSpace=wrap;html=1;container=0;flipH=0;flipV=0;fontSize=15;" parent="1" vertex="1">
          <mxGeometry x="2020" y="1145.5" width="120" height="60" as="geometry" />
        </mxCell>
        <mxCell id="BtOoT9dO2cWIdR1cvxDf-57" style="edgeStyle=orthogonalEdgeStyle;rounded=0;orthogonalLoop=1;jettySize=auto;html=1;entryX=0.5;entryY=0;entryDx=0;entryDy=0;fontSize=15;" parent="1" source="BtOoT9dO2cWIdR1cvxDf-58" target="BtOoT9dO2cWIdR1cvxDf-65" edge="1">
          <mxGeometry relative="1" as="geometry" />
        </mxCell>
        <mxCell id="BtOoT9dO2cWIdR1cvxDf-58" value="Manage tools" style="rounded=0;whiteSpace=wrap;html=1;container=0;flipH=0;flipV=0;fontSize=15;" parent="1" vertex="1">
          <mxGeometry x="2250" y="1145.5" width="120" height="60" as="geometry" />
        </mxCell>
        <mxCell id="BtOoT9dO2cWIdR1cvxDf-59" style="edgeStyle=orthogonalEdgeStyle;rounded=0;orthogonalLoop=1;jettySize=auto;html=1;entryX=0.5;entryY=0;entryDx=0;entryDy=0;dashed=1;fontSize=15;" parent="1" source="BtOoT9dO2cWIdR1cvxDf-91" target="BtOoT9dO2cWIdR1cvxDf-88" edge="1">
          <mxGeometry relative="1" as="geometry" />
        </mxCell>
        <mxCell id="BtOoT9dO2cWIdR1cvxDf-60" value="&lt;span style=&quot;caret-color: rgb(0, 0, 0); color: rgb(0, 0, 0); font-family: Helvetica; font-style: normal; font-variant-caps: normal; font-weight: 400; letter-spacing: normal; text-align: center; text-indent: 0px; text-transform: none; white-space: normal; word-spacing: 0px; -webkit-text-stroke-width: 0px; text-decoration: none; float: none; display: inline !important;&quot;&gt;Edit Tool spec&lt;/span&gt;&lt;div&gt;&lt;span&gt;&lt;span style=&quot;caret-color: rgb(0, 0, 0); color: rgb(0, 0, 0); font-family: Helvetica; font-style: normal; font-variant-caps: normal; font-weight: 400; letter-spacing: normal; text-align: center; text-indent: 0px; text-transform: none; white-space: normal; word-spacing: 0px; -webkit-text-stroke-width: 0px; text-decoration: none; float: none; display: inline !important;&quot;&gt;&amp;nbsp;information&lt;/span&gt;&amp;nbsp;&lt;/span&gt;&lt;div&gt;&lt;div style=&quot;caret-color: rgb(0, 0, 0); color: rgb(0, 0, 0); font-family: Helvetica; font-style: normal; font-variant-caps: normal; font-weight: 400; letter-spacing: normal; text-align: center; text-indent: 0px; text-transform: none; white-space: normal; word-spacing: 0px; -webkit-text-stroke-width: 0px; text-decoration: none;&quot;&gt;&lt;span&gt;(Toolspec-id, Name, Description)&lt;/span&gt;&lt;br&gt;&lt;/div&gt;&lt;/div&gt;&lt;/div&gt;" style="shape=parallelogram;perimeter=parallelogramPerimeter;whiteSpace=wrap;html=1;fixedSize=1;fillColor=#f5f5f5;strokeColor=#666666;fontColor=#333333;container=0;flipH=0;flipV=0;fontSize=15;" parent="1" vertex="1">
          <mxGeometry x="2540" y="993" width="140" height="70" as="geometry" />
        </mxCell>
        <mxCell id="BtOoT9dO2cWIdR1cvxDf-61" value="&lt;span style=&quot;float: none; caret-color: rgb(0, 0, 0); color: rgb(0, 0, 0); display: inline !important;&quot;&gt;Edit agent&lt;/span&gt;&lt;div&gt;&lt;span&gt;&lt;span style=&quot;float: none; caret-color: rgb(0, 0, 0); color: rgb(0, 0, 0); display: inline !important;&quot;&gt;&amp;nbsp;information&lt;/span&gt;&amp;nbsp;&lt;/span&gt;&lt;div&gt;&lt;div style=&quot;caret-color: rgb(0, 0, 0); color: rgb(0, 0, 0);&quot;&gt;&lt;span&gt;(Name, description,&lt;/span&gt;&lt;/div&gt;&lt;div style=&quot;caret-color: rgb(0, 0, 0); color: rgb(0, 0, 0);&quot;&gt;&lt;span&gt;&amp;nbsp;tools, sys msg)&lt;/span&gt;&lt;/div&gt;&lt;/div&gt;&lt;/div&gt;" style="shape=parallelogram;perimeter=parallelogramPerimeter;whiteSpace=wrap;html=1;fixedSize=1;fillColor=#f5f5f5;strokeColor=#666666;fontColor=#333333;container=0;flipH=0;flipV=0;fontSize=15;" parent="1" vertex="1">
          <mxGeometry x="1460" y="1328" width="140" height="70" as="geometry" />
        </mxCell>
        <mxCell id="BtOoT9dO2cWIdR1cvxDf-62" style="edgeStyle=orthogonalEdgeStyle;rounded=0;orthogonalLoop=1;jettySize=auto;html=1;entryX=0;entryY=0.5;entryDx=0;entryDy=0;fontSize=15;" parent="1" target="BtOoT9dO2cWIdR1cvxDf-56" edge="1">
          <mxGeometry relative="1" as="geometry">
            <mxPoint x="1713.75" y="1363" as="sourcePoint" />
            <mxPoint x="1996.25" y="933" as="targetPoint" />
            <Array as="points">
              <mxPoint x="1939" y="1363" />
              <mxPoint x="1939" y="1176" />
            </Array>
          </mxGeometry>
        </mxCell>
        <mxCell id="BtOoT9dO2cWIdR1cvxDf-63" value="No" style="edgeLabel;html=1;align=center;verticalAlign=middle;resizable=0;points=[];container=0;fontSize=15;" parent="BtOoT9dO2cWIdR1cvxDf-62" connectable="0" vertex="1">
          <mxGeometry x="-0.5158" y="1" relative="1" as="geometry">
            <mxPoint x="-74" y="1" as="offset" />
          </mxGeometry>
        </mxCell>
        <mxCell id="BtOoT9dO2cWIdR1cvxDf-64" style="edgeStyle=orthogonalEdgeStyle;rounded=0;orthogonalLoop=1;jettySize=auto;html=1;entryX=1;entryY=0.5;entryDx=0;entryDy=0;exitX=0.5;exitY=1;exitDx=0;exitDy=0;jumpStyle=arc;jumpSize=12;fontSize=15;" parent="1" source="BtOoT9dO2cWIdR1cvxDf-65" target="BtOoT9dO2cWIdR1cvxDf-86" edge="1">
          <mxGeometry relative="1" as="geometry" />
        </mxCell>
        <mxCell id="BtOoT9dO2cWIdR1cvxDf-65" value="Assign tools" style="rounded=0;whiteSpace=wrap;html=1;container=0;flipH=0;flipV=0;fontSize=15;" parent="1" vertex="1">
          <mxGeometry x="2250" y="1258" width="120" height="60" as="geometry" />
        </mxCell>
        <mxCell id="BtOoT9dO2cWIdR1cvxDf-66" style="edgeStyle=orthogonalEdgeStyle;rounded=0;orthogonalLoop=1;jettySize=auto;html=1;exitX=0.5;exitY=1;exitDx=0;exitDy=0;entryX=0.5;entryY=0;entryDx=0;entryDy=0;fontSize=15;" parent="1" source="BtOoT9dO2cWIdR1cvxDf-67" target="BtOoT9dO2cWIdR1cvxDf-82" edge="1">
          <mxGeometry relative="1" as="geometry" />
        </mxCell>
        <mxCell id="BtOoT9dO2cWIdR1cvxDf-67" value="Clone function" style="whiteSpace=wrap;html=1;rounded=0;container=0;flipH=0;flipV=0;fontSize=15;" parent="1" vertex="1">
          <mxGeometry x="700" y="1153" width="120" height="60" as="geometry" />
        </mxCell>
        <mxCell id="BtOoT9dO2cWIdR1cvxDf-68" value="View Functions" style="rounded=0;whiteSpace=wrap;html=1;container=0;flipH=0;flipV=0;fontSize=15;" parent="1" vertex="1">
          <mxGeometry x="780" y="853" width="120" height="60" as="geometry" />
        </mxCell>
        <mxCell id="BtOoT9dO2cWIdR1cvxDf-69" value="" style="edgeStyle=orthogonalEdgeStyle;rounded=0;orthogonalLoop=1;jettySize=auto;html=1;fontSize=15;" parent="1" source="BtOoT9dO2cWIdR1cvxDf-68" target="BtOoT9dO2cWIdR1cvxDf-89" edge="1">
          <mxGeometry relative="1" as="geometry" />
        </mxCell>
        <mxCell id="BtOoT9dO2cWIdR1cvxDf-70" value="" style="edgeStyle=orthogonalEdgeStyle;rounded=0;orthogonalLoop=1;jettySize=auto;html=1;exitX=0;exitY=0.5;exitDx=0;exitDy=0;fontSize=15;" parent="1" source="BtOoT9dO2cWIdR1cvxDf-89" target="BtOoT9dO2cWIdR1cvxDf-67" edge="1">
          <mxGeometry relative="1" as="geometry">
            <Array as="points">
              <mxPoint x="760" y="1038" />
            </Array>
          </mxGeometry>
        </mxCell>
        <mxCell id="BtOoT9dO2cWIdR1cvxDf-71" value="Yes" style="edgeLabel;html=1;align=center;verticalAlign=middle;resizable=0;points=[];container=0;fontSize=15;" parent="BtOoT9dO2cWIdR1cvxDf-70" connectable="0" vertex="1">
          <mxGeometry x="0.1789" relative="1" as="geometry">
            <mxPoint as="offset" />
          </mxGeometry>
        </mxCell>
        <mxCell id="BtOoT9dO2cWIdR1cvxDf-72" value="" style="edgeStyle=orthogonalEdgeStyle;rounded=0;orthogonalLoop=1;jettySize=auto;html=1;exitX=1;exitY=0.5;exitDx=0;exitDy=0;fontSize=15;" parent="1" source="BtOoT9dO2cWIdR1cvxDf-89" target="BtOoT9dO2cWIdR1cvxDf-75" edge="1">
          <mxGeometry relative="1" as="geometry" />
        </mxCell>
        <mxCell id="BtOoT9dO2cWIdR1cvxDf-73" value="No" style="edgeLabel;html=1;align=center;verticalAlign=middle;resizable=0;points=[];container=0;fontSize=15;" parent="BtOoT9dO2cWIdR1cvxDf-72" connectable="0" vertex="1">
          <mxGeometry x="-0.125" y="2" relative="1" as="geometry">
            <mxPoint x="-2" y="32" as="offset" />
          </mxGeometry>
        </mxCell>
        <mxCell id="BtOoT9dO2cWIdR1cvxDf-74" style="edgeStyle=orthogonalEdgeStyle;rounded=0;orthogonalLoop=1;jettySize=auto;html=1;entryX=0.5;entryY=0;entryDx=0;entryDy=0;fontSize=15;" parent="1" source="BtOoT9dO2cWIdR1cvxDf-75" target="BtOoT9dO2cWIdR1cvxDf-80" edge="1">
          <mxGeometry relative="1" as="geometry">
            <mxPoint x="930" y="1313" as="targetPoint" />
          </mxGeometry>
        </mxCell>
        <mxCell id="BtOoT9dO2cWIdR1cvxDf-75" value="Create function" style="whiteSpace=wrap;html=1;rounded=0;container=0;flipH=0;flipV=0;fontSize=15;" parent="1" vertex="1">
          <mxGeometry x="870" y="1153" width="120" height="60" as="geometry" />
        </mxCell>
        <mxCell id="BtOoT9dO2cWIdR1cvxDf-76" style="rounded=0;orthogonalLoop=1;jettySize=auto;html=1;exitX=0;exitY=0;exitDx=0;exitDy=0;entryX=1;entryY=1;entryDx=0;entryDy=0;fontSize=15;" parent="1" source="BtOoT9dO2cWIdR1cvxDf-84" target="BtOoT9dO2cWIdR1cvxDf-80" edge="1">
          <mxGeometry relative="1" as="geometry" />
        </mxCell>
        <mxCell id="BtOoT9dO2cWIdR1cvxDf-77" style="edgeStyle=orthogonalEdgeStyle;rounded=0;orthogonalLoop=1;jettySize=auto;html=1;exitX=1;exitY=0.5;exitDx=0;exitDy=0;entryX=0;entryY=0.5;entryDx=0;entryDy=0;fontSize=15;" parent="1" source="BtOoT9dO2cWIdR1cvxDf-80" target="BtOoT9dO2cWIdR1cvxDf-19" edge="1">
          <mxGeometry relative="1" as="geometry" />
        </mxCell>
        <mxCell id="BtOoT9dO2cWIdR1cvxDf-78" value="No" style="edgeLabel;html=1;align=center;verticalAlign=middle;resizable=0;points=[];fontSize=15;" parent="BtOoT9dO2cWIdR1cvxDf-77" connectable="0" vertex="1">
          <mxGeometry x="-0.0133" y="4" relative="1" as="geometry">
            <mxPoint y="-1" as="offset" />
          </mxGeometry>
        </mxCell>
        <mxCell id="BtOoT9dO2cWIdR1cvxDf-79" value="&lt;span style=&quot;caret-color: rgb(0, 0, 0); color: rgb(0, 0, 0); font-family: Helvetica; font-style: normal; font-variant-caps: normal; font-weight: 400; letter-spacing: normal; text-align: center; text-indent: 0px; text-transform: none; white-space: normal; word-spacing: 0px; -webkit-text-stroke-width: 0px; background-color: rgb(251, 251, 251); text-decoration: none; float: none; display: inline !important;&quot;&gt;&lt;font style=&quot;font-size: 18px;&quot;&gt;User first gains access to digital colleagues and configures collections&lt;/font&gt;&lt;/span&gt;" style="rounded=0;whiteSpace=wrap;html=1;" parent="1" vertex="1">
          <mxGeometry x="1374.5" y="480" width="175" height="100" as="geometry" />
        </mxCell>
        <mxCell id="BtOoT9dO2cWIdR1cvxDf-80" value="Has&amp;nbsp;&lt;div&gt;required Squad?&lt;/div&gt;" style="rhombus;whiteSpace=wrap;html=1;fillColor=#f9f7ed;strokeColor=#36393d;container=0;flipH=0;flipV=0;fontSize=15;" parent="1" vertex="1">
          <mxGeometry x="885" y="1318" width="90" height="90" as="geometry" />
        </mxCell>
        <mxCell id="BtOoT9dO2cWIdR1cvxDf-81" style="edgeStyle=orthogonalEdgeStyle;rounded=0;orthogonalLoop=1;jettySize=auto;html=1;entryX=0;entryY=0.5;entryDx=0;entryDy=0;fontSize=15;" parent="1" source="BtOoT9dO2cWIdR1cvxDf-82" target="BtOoT9dO2cWIdR1cvxDf-80" edge="1">
          <mxGeometry relative="1" as="geometry" />
        </mxCell>
        <mxCell id="BtOoT9dO2cWIdR1cvxDf-82" value="&lt;span style=&quot;caret-color: rgb(0, 0, 0); color: rgb(0, 0, 0); font-family: Helvetica; font-style: normal; font-variant-caps: normal; font-weight: 400; letter-spacing: normal; text-align: center; text-indent: 0px; text-transform: none; white-space: normal; word-spacing: 0px; -webkit-text-stroke-width: 0px; text-decoration: none; float: none; display: inline !important;&quot;&gt;Edit Function&lt;/span&gt;&lt;div&gt;&lt;span&gt;&lt;span style=&quot;caret-color: rgb(0, 0, 0); color: rgb(0, 0, 0); font-family: Helvetica; font-style: normal; font-variant-caps: normal; font-weight: 400; letter-spacing: normal; text-align: center; text-indent: 0px; text-transform: none; white-space: normal; word-spacing: 0px; -webkit-text-stroke-width: 0px; text-decoration: none; float: none; display: inline !important;&quot;&gt;&amp;nbsp;information&lt;/span&gt;&amp;nbsp;&lt;/span&gt;&lt;div&gt;&lt;div style=&quot;caret-color: rgb(0, 0, 0); color: rgb(0, 0, 0); font-family: Helvetica; font-style: normal; font-variant-caps: normal; font-weight: 400; letter-spacing: normal; text-align: center; text-indent: 0px; text-transform: none; white-space: normal; word-spacing: 0px; -webkit-text-stroke-width: 0px; text-decoration: none;&quot;&gt;&lt;span&gt;(Name, Description,&lt;/span&gt;&lt;/div&gt;&lt;div style=&quot;caret-color: rgb(0, 0, 0); color: rgb(0, 0, 0); font-family: Helvetica; font-style: normal; font-variant-caps: normal; font-weight: 400; letter-spacing: normal; text-align: center; text-indent: 0px; text-transform: none; white-space: normal; word-spacing: 0px; -webkit-text-stroke-width: 0px; text-decoration: none;&quot;&gt;&lt;span&gt;&amp;nbsp;work instructions,&lt;/span&gt;&lt;/div&gt;&lt;div style=&quot;caret-color: rgb(0, 0, 0); color: rgb(0, 0, 0); font-family: Helvetica; font-style: normal; font-variant-caps: normal; font-weight: 400; letter-spacing: normal; text-align: center; text-indent: 0px; text-transform: none; white-space: normal; word-spacing: 0px; -webkit-text-stroke-width: 0px; text-decoration: none;&quot;&gt;&lt;span&gt;&amp;nbsp;linked squad&lt;/span&gt;&lt;span style=&quot;caret-color: rgb(0, 0, 0); color: rgb(0, 0, 0);&quot;&gt;)&lt;/span&gt;&lt;/div&gt;&lt;/div&gt;&lt;/div&gt;" style="shape=parallelogram;perimeter=parallelogramPerimeter;whiteSpace=wrap;html=1;fixedSize=1;fillColor=#f5f5f5;strokeColor=#666666;fontColor=#333333;container=0;fontSize=12;" parent="1" vertex="1">
          <mxGeometry x="690" y="1328" width="140" height="70" as="geometry" />
        </mxCell>
        <mxCell id="BtOoT9dO2cWIdR1cvxDf-83" value="&lt;font style=&quot;font-size: 15px;&quot;&gt;Yes&lt;/font&gt;" style="edgeStyle=orthogonalEdgeStyle;rounded=0;orthogonalLoop=1;jettySize=auto;html=1;exitX=0.5;exitY=1;exitDx=0;exitDy=0;" parent="1" source="BtOoT9dO2cWIdR1cvxDf-94" target="BtOoT9dO2cWIdR1cvxDf-127" edge="1">
          <mxGeometry x="-0.8191" relative="1" as="geometry">
            <mxPoint x="890" y="1850" as="sourcePoint" />
            <Array as="points">
              <mxPoint x="930" y="1850" />
              <mxPoint x="1020" y="1850" />
            </Array>
            <mxPoint as="offset" />
          </mxGeometry>
        </mxCell>
        <mxCell id="BtOoT9dO2cWIdR1cvxDf-84" value="Save Squad" style="rounded=0;whiteSpace=wrap;html=1;container=0;flipH=0;flipV=0;fontSize=15;" parent="1" vertex="1">
          <mxGeometry x="1110" y="1653" width="120" height="60" as="geometry" />
        </mxCell>
        <mxCell id="BtOoT9dO2cWIdR1cvxDf-85" value="Save agents" style="rounded=0;whiteSpace=wrap;html=1;container=0;flipH=0;flipV=0;fontSize=15;" parent="1" vertex="1">
          <mxGeometry x="1610" y="1663" width="120" height="60" as="geometry" />
        </mxCell>
        <mxCell id="BtOoT9dO2cWIdR1cvxDf-86" value="Save Tools" style="rounded=0;whiteSpace=wrap;html=1;container=0;flipH=0;flipV=0;fontSize=15;" parent="1" vertex="1">
          <mxGeometry x="2020" y="1663" width="120" height="60" as="geometry" />
        </mxCell>
        <mxCell id="BtOoT9dO2cWIdR1cvxDf-87" style="rounded=0;orthogonalLoop=1;jettySize=auto;html=1;exitX=0;exitY=0;exitDx=0;exitDy=0;entryX=1;entryY=1;entryDx=0;entryDy=0;dashed=1;fontSize=15;" parent="1" source="BtOoT9dO2cWIdR1cvxDf-88" target="BtOoT9dO2cWIdR1cvxDf-54" edge="1">
          <mxGeometry relative="1" as="geometry" />
        </mxCell>
        <mxCell id="BtOoT9dO2cWIdR1cvxDf-88" value="Save Tools spec" style="rounded=0;whiteSpace=wrap;html=1;container=0;flipH=0;flipV=0;fontSize=15;" parent="1" vertex="1">
          <mxGeometry x="2550" y="1663" width="120" height="60" as="geometry" />
        </mxCell>
        <mxCell id="BtOoT9dO2cWIdR1cvxDf-89" value="Has&amp;nbsp;&lt;div&gt;Function?&lt;/div&gt;" style="rhombus;whiteSpace=wrap;html=1;rounded=0;container=0;fillColor=#f9f7ed;strokeColor=#36393d;flipH=0;flipV=0;fontSize=15;" parent="1" vertex="1">
          <mxGeometry x="800" y="998" width="80" height="80" as="geometry" />
        </mxCell>
        <mxCell id="BtOoT9dO2cWIdR1cvxDf-90" value="" style="edgeStyle=orthogonalEdgeStyle;rounded=0;orthogonalLoop=1;jettySize=auto;html=1;entryX=0.5;entryY=0;entryDx=0;entryDy=0;dashed=1;fontSize=15;" parent="1" source="BtOoT9dO2cWIdR1cvxDf-60" target="BtOoT9dO2cWIdR1cvxDf-91" edge="1">
          <mxGeometry relative="1" as="geometry">
            <mxPoint x="2610" y="1063" as="sourcePoint" />
            <mxPoint x="2610" y="1663" as="targetPoint" />
          </mxGeometry>
        </mxCell>
        <mxCell id="BtOoT9dO2cWIdR1cvxDf-91" value="Upload toolspec" style="rounded=0;whiteSpace=wrap;html=1;container=0;flipH=0;flipV=0;fontSize=15;" parent="1" vertex="1">
          <mxGeometry x="2550" y="1258" width="120" height="60" as="geometry" />
        </mxCell>
        <mxCell id="BtOoT9dO2cWIdR1cvxDf-92" value="&lt;font style=&quot;font-size: 23px;&quot;&gt;WorkForce (What it is, What squad is responsible, who is in the squad, what are they using)&lt;/font&gt;" style="swimlane;horizontal=0;whiteSpace=wrap;html=1;container=0;startSize=60;fillColor=#f5f5f5;fontColor=#333333;strokeColor=#666666;" parent="1" vertex="1">
          <mxGeometry x="190" y="623" width="2680" height="1190" as="geometry" />
        </mxCell>
        <mxCell id="BtOoT9dO2cWIdR1cvxDf-93" value="Save Function" style="whiteSpace=wrap;html=1;flipH=0;flipV=0;fontSize=15;container=0;" parent="BtOoT9dO2cWIdR1cvxDf-92" vertex="1">
          <mxGeometry x="680" y="980" width="120" height="60" as="geometry" />
        </mxCell>
        <mxCell id="BtOoT9dO2cWIdR1cvxDf-94" value="Ongoing Project?" style="rhombus;whiteSpace=wrap;html=1;fontSize=15;fillColor=#f9f7ed;strokeColor=#36393d;" parent="BtOoT9dO2cWIdR1cvxDf-92" vertex="1">
          <mxGeometry x="700" y="1080" width="80" height="80" as="geometry" />
        </mxCell>
        <mxCell id="BtOoT9dO2cWIdR1cvxDf-95" value="" style="edgeStyle=orthogonalEdgeStyle;rounded=0;orthogonalLoop=1;jettySize=auto;html=1;" parent="BtOoT9dO2cWIdR1cvxDf-92" source="BtOoT9dO2cWIdR1cvxDf-93" target="BtOoT9dO2cWIdR1cvxDf-94" edge="1">
          <mxGeometry relative="1" as="geometry" />
        </mxCell>
        <mxCell id="BtOoT9dO2cWIdR1cvxDf-96" value="" style="shape=flexArrow;endArrow=classic;html=1;rounded=0;entryX=0.5;entryY=0;entryDx=0;entryDy=0;fillColor=#000000;" parent="1" target="BtOoT9dO2cWIdR1cvxDf-79" edge="1">
          <mxGeometry width="50" height="50" relative="1" as="geometry">
            <mxPoint x="1462" y="410" as="sourcePoint" />
            <mxPoint x="1597" y="450" as="targetPoint" />
          </mxGeometry>
        </mxCell>
        <mxCell id="BtOoT9dO2cWIdR1cvxDf-97" value="&lt;font style=&quot;font-size: 50px;&quot;&gt;Definitions:&lt;/font&gt;&lt;div&gt;&lt;div style=&quot;text-align: left;&quot;&gt;&lt;span style=&quot;font-size: 50px;&quot;&gt;&lt;br&gt;&lt;/span&gt;&lt;/div&gt;&lt;div style=&quot;text-align: left;&quot;&gt;&lt;span style=&quot;font-size: 50px;&quot;&gt;Tool: &amp;nbsp; &amp;nbsp; &amp;nbsp; &amp;nbsp; &amp;nbsp; &amp;nbsp; &amp;nbsp; &amp;nbsp; &amp;nbsp; &amp;nbsp; &amp;nbsp; &amp;nbsp; &amp;nbsp; &amp;nbsp; &amp;nbsp; &amp;nbsp; &amp;nbsp;&lt;/span&gt;&lt;/div&gt;&lt;div style=&quot;text-align: left;&quot;&gt;&lt;span style=&quot;font-size: 50px;&quot;&gt;&lt;br&gt;&lt;/span&gt;&lt;/div&gt;&lt;div style=&quot;text-align: left;&quot;&gt;&lt;span style=&quot;font-size: 50px;&quot;&gt;Agent:&lt;/span&gt;&lt;/div&gt;&lt;div style=&quot;text-align: left;&quot;&gt;&lt;span style=&quot;font-size: 50px;&quot;&gt;&lt;br&gt;&lt;/span&gt;&lt;/div&gt;&lt;div style=&quot;text-align: left;&quot;&gt;&lt;span style=&quot;font-size: 50px;&quot;&gt;Squad:&lt;/span&gt;&lt;/div&gt;&lt;div style=&quot;text-align: left;&quot;&gt;&lt;span style=&quot;font-size: 50px;&quot;&gt;&lt;br&gt;&lt;/span&gt;&lt;/div&gt;&lt;div style=&quot;text-align: left;&quot;&gt;&lt;span style=&quot;font-size: 50px;&quot;&gt;Function:&lt;/span&gt;&lt;/div&gt;&lt;div style=&quot;text-align: left;&quot;&gt;&lt;span style=&quot;font-size: 50px;&quot;&gt;&lt;br&gt;&lt;/span&gt;&lt;/div&gt;&lt;div style=&quot;text-align: left;&quot;&gt;&lt;span style=&quot;font-size: 50px;&quot;&gt;Project: hfhfhfhf&lt;/span&gt;&lt;/div&gt;&lt;div style=&quot;text-align: left;&quot;&gt;&lt;span style=&quot;font-size: 50px;&quot;&gt;&lt;br&gt;&lt;/span&gt;&lt;/div&gt;&lt;div style=&quot;text-align: left;&quot;&gt;&lt;span style=&quot;font-size: 50px;&quot;&gt;Task:&lt;/span&gt;&lt;/div&gt;&lt;div style=&quot;text-align: left;&quot;&gt;&lt;span style=&quot;font-size: 50px;&quot;&gt;&lt;br&gt;&lt;/span&gt;&lt;/div&gt;&lt;div style=&quot;text-align: left;&quot;&gt;&lt;span style=&quot;font-size: 50px;&quot;&gt;Epic:&lt;/span&gt;&lt;/div&gt;&lt;div&gt;&lt;span style=&quot;font-size: 50px;&quot;&gt;&lt;br&gt;&lt;/span&gt;&lt;/div&gt;&lt;div&gt;&lt;span style=&quot;font-size: 50px;&quot;&gt;&lt;br&gt;&lt;/span&gt;&lt;/div&gt;&lt;div&gt;&lt;span style=&quot;font-size: 50px;&quot;&gt;&lt;br&gt;&lt;/span&gt;&lt;/div&gt;&lt;div&gt;&lt;span style=&quot;font-size: 50px;&quot;&gt;&lt;br&gt;&lt;/span&gt;&lt;div&gt;&lt;br&gt;&lt;/div&gt;&lt;div&gt;&lt;br&gt;&lt;/div&gt;&lt;/div&gt;&lt;/div&gt;" style="text;html=1;align=center;verticalAlign=middle;resizable=0;points=[];autosize=1;strokeColor=none;fillColor=none;labelBackgroundColor=default;labelBorderColor=default;" parent="1" vertex="1">
          <mxGeometry x="3070" y="523" width="600" height="1180" as="geometry" />
        </mxCell>
        <mxCell id="BtOoT9dO2cWIdR1cvxDf-98" style="edgeStyle=orthogonalEdgeStyle;rounded=0;orthogonalLoop=1;jettySize=auto;html=1;entryX=0.5;entryY=0;entryDx=0;entryDy=0;fontSize=15;" parent="1" source="BtOoT9dO2cWIdR1cvxDf-99" target="BtOoT9dO2cWIdR1cvxDf-100" edge="1">
          <mxGeometry relative="1" as="geometry" />
        </mxCell>
        <mxCell id="BtOoT9dO2cWIdR1cvxDf-99" value="View Squads" style="rounded=0;whiteSpace=wrap;html=1;container=0;flipH=0;flipV=0;fontSize=15;" parent="1" vertex="1">
          <mxGeometry x="1180" y="853" width="120" height="60" as="geometry" />
        </mxCell>
        <mxCell id="BtOoT9dO2cWIdR1cvxDf-100" value="Has Squad?" style="rhombus;whiteSpace=wrap;html=1;fillColor=#f9f7ed;strokeColor=#36393d;container=0;flipH=0;flipV=0;fontSize=15;" parent="1" vertex="1">
          <mxGeometry x="1195" y="993" width="90" height="90" as="geometry" />
        </mxCell>
        <mxCell id="BtOoT9dO2cWIdR1cvxDf-101" style="edgeStyle=orthogonalEdgeStyle;rounded=0;orthogonalLoop=1;jettySize=auto;html=1;entryX=0.5;entryY=0;entryDx=0;entryDy=0;exitX=1;exitY=0.5;exitDx=0;exitDy=0;dashed=1;" parent="1" source="BtOoT9dO2cWIdR1cvxDf-103" target="BtOoT9dO2cWIdR1cvxDf-110" edge="1">
          <mxGeometry relative="1" as="geometry" />
        </mxCell>
        <mxCell id="BtOoT9dO2cWIdR1cvxDf-102" value="&lt;font style=&quot;font-size: 15px;&quot;&gt;No&lt;/font&gt;" style="edgeLabel;html=1;align=center;verticalAlign=middle;resizable=0;points=[];" parent="BtOoT9dO2cWIdR1cvxDf-101" connectable="0" vertex="1">
          <mxGeometry x="0.3225" relative="1" as="geometry">
            <mxPoint y="1" as="offset" />
          </mxGeometry>
        </mxCell>
        <mxCell id="BtOoT9dO2cWIdR1cvxDf-103" value="Has&amp;nbsp;&lt;div&gt;Knowledge Base&lt;/div&gt;" style="rhombus;whiteSpace=wrap;html=1;rounded=0;container=0;fillColor=#f9f7ed;strokeColor=#36393d;flipH=0;flipV=0;fontSize=15;" parent="1" vertex="1">
          <mxGeometry x="428" y="993" width="80" height="80" as="geometry" />
        </mxCell>
        <mxCell id="BtOoT9dO2cWIdR1cvxDf-104" value="" style="edgeStyle=orthogonalEdgeStyle;rounded=0;orthogonalLoop=1;jettySize=auto;html=1;dashed=1;" parent="1" source="BtOoT9dO2cWIdR1cvxDf-105" target="BtOoT9dO2cWIdR1cvxDf-106" edge="1">
          <mxGeometry relative="1" as="geometry" />
        </mxCell>
        <mxCell id="BtOoT9dO2cWIdR1cvxDf-105" value="Outputs knowledge base ID" style="whiteSpace=wrap;html=1;flipH=0;flipV=0;fontSize=15;container=0;" parent="1" vertex="1">
          <mxGeometry x="408" y="1513" width="120" height="60" as="geometry" />
        </mxCell>
        <mxCell id="BtOoT9dO2cWIdR1cvxDf-106" value="Pass to frontend" style="whiteSpace=wrap;html=1;fontSize=15;" parent="1" vertex="1">
          <mxGeometry x="408" y="1643" width="120" height="60" as="geometry" />
        </mxCell>
        <mxCell id="BtOoT9dO2cWIdR1cvxDf-107" value="Upload files to s3 bucket&amp;nbsp;" style="whiteSpace=wrap;html=1;fontSize=15;" parent="1" vertex="1">
          <mxGeometry x="408" y="1333" width="120" height="60" as="geometry" />
        </mxCell>
        <mxCell id="BtOoT9dO2cWIdR1cvxDf-108" value="" style="edgeStyle=orthogonalEdgeStyle;rounded=0;orthogonalLoop=1;jettySize=auto;html=1;dashed=1;" parent="1" source="BtOoT9dO2cWIdR1cvxDf-107" target="BtOoT9dO2cWIdR1cvxDf-105" edge="1">
          <mxGeometry relative="1" as="geometry" />
        </mxCell>
        <mxCell id="BtOoT9dO2cWIdR1cvxDf-109" style="edgeStyle=orthogonalEdgeStyle;rounded=0;orthogonalLoop=1;jettySize=auto;html=1;dashed=1;" parent="1" source="BtOoT9dO2cWIdR1cvxDf-110" target="BtOoT9dO2cWIdR1cvxDf-107" edge="1">
          <mxGeometry relative="1" as="geometry" />
        </mxCell>
        <mxCell id="BtOoT9dO2cWIdR1cvxDf-110" value="Define name for knowledge base." style="whiteSpace=wrap;html=1;flipH=0;flipV=0;fontSize=15;container=0;shape=parallelogram;perimeter=parallelogramPerimeter;fixedSize=1;fillColor=#f5f5f5;fontColor=#333333;strokeColor=#666666;" parent="1" vertex="1">
          <mxGeometry x="497" y="1143" width="142" height="70" as="geometry" />
        </mxCell>
        <mxCell id="BtOoT9dO2cWIdR1cvxDf-111" value="" style="edgeStyle=orthogonalEdgeStyle;rounded=0;orthogonalLoop=1;jettySize=auto;html=1;dashed=1;" parent="1" source="BtOoT9dO2cWIdR1cvxDf-112" target="BtOoT9dO2cWIdR1cvxDf-103" edge="1">
          <mxGeometry relative="1" as="geometry" />
        </mxCell>
        <mxCell id="BtOoT9dO2cWIdR1cvxDf-112" value="View Knowledge Base" style="rounded=0;whiteSpace=wrap;html=1;container=0;flipH=0;flipV=0;fontSize=15;" parent="1" vertex="1">
          <mxGeometry x="408" y="853" width="120" height="60" as="geometry" />
        </mxCell>
        <mxCell id="BtOoT9dO2cWIdR1cvxDf-113" style="edgeStyle=orthogonalEdgeStyle;rounded=0;orthogonalLoop=1;jettySize=auto;html=1;entryX=0.5;entryY=0;entryDx=0;entryDy=0;dashed=1;" parent="1" source="BtOoT9dO2cWIdR1cvxDf-114" target="BtOoT9dO2cWIdR1cvxDf-107" edge="1">
          <mxGeometry relative="1" as="geometry" />
        </mxCell>
        <mxCell id="BtOoT9dO2cWIdR1cvxDf-114" value="Manage Knowledge base" style="whiteSpace=wrap;html=1;flipH=0;flipV=0;fontSize=15;container=0;" parent="1" vertex="1">
          <mxGeometry x="320" y="1153" width="120" height="60" as="geometry" />
        </mxCell>
        <mxCell id="BtOoT9dO2cWIdR1cvxDf-115" value="&lt;font&gt;Yes&lt;/font&gt;" style="edgeStyle=orthogonalEdgeStyle;rounded=0;orthogonalLoop=1;jettySize=auto;html=1;entryX=0.5;entryY=0;entryDx=0;entryDy=0;exitX=0;exitY=0.5;exitDx=0;exitDy=0;fontSize=15;dashed=1;" parent="1" source="BtOoT9dO2cWIdR1cvxDf-103" target="BtOoT9dO2cWIdR1cvxDf-114" edge="1">
          <mxGeometry x="0.2854" relative="1" as="geometry">
            <mxPoint x="348" y="1033" as="targetPoint" />
            <mxPoint y="-1" as="offset" />
          </mxGeometry>
        </mxCell>
        <mxCell id="BtOoT9dO2cWIdR1cvxDf-116" value="&lt;span style=&quot;caret-color: rgb(0, 0, 0); color: rgb(0, 0, 0); font-family: Helvetica; font-size: 15px; font-style: normal; font-variant-caps: normal; font-weight: 400; letter-spacing: normal; text-align: center; text-indent: 0px; text-transform: none; white-space: normal; word-spacing: 0px; -webkit-text-stroke-width: 0px; background-color: rgb(251, 251, 251); text-decoration: none; float: none; display: inline !important;&quot;&gt;Bedrock pulls from that bedrock knowledge base.&lt;/span&gt;" style="rounded=0;whiteSpace=wrap;html=1;" parent="1" vertex="1">
          <mxGeometry x="408" y="1423" width="120" height="60" as="geometry" />
        </mxCell>
        <mxCell id="BtOoT9dO2cWIdR1cvxDf-117" value="&lt;font style=&quot;font-size: 32px;&quot;&gt;Dotted Lines = Not input by an AI agent (user must configure)&lt;/font&gt;" style="text;html=1;align=center;verticalAlign=middle;resizable=0;points=[];autosize=1;strokeColor=none;fillColor=none;" parent="1" vertex="1">
          <mxGeometry x="205" y="540" width="890" height="50" as="geometry" />
        </mxCell>
        <mxCell id="BtOoT9dO2cWIdR1cvxDf-118" value="&lt;font style=&quot;font-size: 23px;&quot;&gt;Use Case example&lt;/font&gt;" style="swimlane;horizontal=0;whiteSpace=wrap;html=1;container=0;startSize=60;fillColor=#f5f5f5;fontColor=#333333;strokeColor=#666666;" parent="1" vertex="1">
          <mxGeometry x="191" y="1891" width="2679" height="622" as="geometry" />
        </mxCell>
        <mxCell id="BtOoT9dO2cWIdR1cvxDf-119" value="&lt;font style=&quot;font-size: 25px;&quot;&gt;User&lt;/font&gt;" style="shape=umlActor;verticalLabelPosition=bottom;verticalAlign=top;html=1;outlineConnect=0;container=0;" parent="BtOoT9dO2cWIdR1cvxDf-118" vertex="1">
          <mxGeometry x="211" y="302" width="60" height="100" as="geometry" />
        </mxCell>
        <mxCell id="BtOoT9dO2cWIdR1cvxDf-120" value="Generate Epics" style="whiteSpace=wrap;html=1;fontSize=15;" parent="BtOoT9dO2cWIdR1cvxDf-118" vertex="1">
          <mxGeometry x="1169" y="321.5" width="120" height="60" as="geometry" />
        </mxCell>
        <mxCell id="BtOoT9dO2cWIdR1cvxDf-121" value="" style="edgeStyle=orthogonalEdgeStyle;rounded=0;orthogonalLoop=1;jettySize=auto;html=1;" parent="BtOoT9dO2cWIdR1cvxDf-118" source="BtOoT9dO2cWIdR1cvxDf-122" edge="1">
          <mxGeometry relative="1" as="geometry">
            <mxPoint x="579" y="351.50000000000045" as="targetPoint" />
          </mxGeometry>
        </mxCell>
        <mxCell id="BtOoT9dO2cWIdR1cvxDf-122" value="&lt;font style=&quot;font-size: 15px;&quot;&gt;Create new project&lt;/font&gt;" style="whiteSpace=wrap;html=1;verticalAlign=top;" parent="BtOoT9dO2cWIdR1cvxDf-118" vertex="1">
          <mxGeometry x="369" y="322" width="120" height="60" as="geometry" />
        </mxCell>
        <mxCell id="BtOoT9dO2cWIdR1cvxDf-123" value="" style="edgeStyle=orthogonalEdgeStyle;rounded=0;orthogonalLoop=1;jettySize=auto;html=1;" parent="BtOoT9dO2cWIdR1cvxDf-118" source="BtOoT9dO2cWIdR1cvxDf-119" target="BtOoT9dO2cWIdR1cvxDf-122" edge="1">
          <mxGeometry relative="1" as="geometry" />
        </mxCell>
        <mxCell id="BtOoT9dO2cWIdR1cvxDf-124" value="" style="edgeStyle=orthogonalEdgeStyle;rounded=0;orthogonalLoop=1;jettySize=auto;html=1;" parent="BtOoT9dO2cWIdR1cvxDf-118" source="BtOoT9dO2cWIdR1cvxDf-125" target="BtOoT9dO2cWIdR1cvxDf-127" edge="1">
          <mxGeometry relative="1" as="geometry" />
        </mxCell>
        <mxCell id="BtOoT9dO2cWIdR1cvxDf-125" value="Define&amp;nbsp;&lt;div&gt;Project&amp;nbsp;&lt;div style=&quot;font-size: 12px;&quot;&gt;&lt;font style=&quot;font-size: 15px;&quot;&gt;name&amp;nbsp;&lt;/font&gt;&lt;/div&gt;&lt;/div&gt;" style="shape=parallelogram;perimeter=parallelogramPerimeter;whiteSpace=wrap;html=1;fixedSize=1;fillColor=#eeeeee;strokeColor=#36393d;flipH=0;flipV=0;fontSize=15;" parent="BtOoT9dO2cWIdR1cvxDf-118" vertex="1">
          <mxGeometry x="569" y="321.5" width="120" height="60" as="geometry" />
        </mxCell>
        <mxCell id="BtOoT9dO2cWIdR1cvxDf-126" value="" style="edgeStyle=orthogonalEdgeStyle;rounded=0;orthogonalLoop=1;jettySize=auto;html=1;" parent="BtOoT9dO2cWIdR1cvxDf-118" source="BtOoT9dO2cWIdR1cvxDf-127" target="BtOoT9dO2cWIdR1cvxDf-130" edge="1">
          <mxGeometry relative="1" as="geometry" />
        </mxCell>
        <mxCell id="BtOoT9dO2cWIdR1cvxDf-127" value="Select function" style="whiteSpace=wrap;html=1;fontSize=15;" parent="BtOoT9dO2cWIdR1cvxDf-118" vertex="1">
          <mxGeometry x="769" y="321.5" width="120" height="60" as="geometry" />
        </mxCell>
        <mxCell id="BtOoT9dO2cWIdR1cvxDf-128" value="&lt;font style=&quot;font-size: 15px;&quot;&gt;Yes&lt;/font&gt;" style="edgeStyle=orthogonalEdgeStyle;rounded=0;orthogonalLoop=1;jettySize=auto;html=1;" parent="BtOoT9dO2cWIdR1cvxDf-118" source="BtOoT9dO2cWIdR1cvxDf-130" target="BtOoT9dO2cWIdR1cvxDf-120" edge="1">
          <mxGeometry relative="1" as="geometry" />
        </mxCell>
        <mxCell id="BtOoT9dO2cWIdR1cvxDf-129" value="&lt;font style=&quot;font-size: 15px;&quot;&gt;No&lt;/font&gt;" style="edgeStyle=orthogonalEdgeStyle;rounded=0;orthogonalLoop=1;jettySize=auto;html=1;" parent="BtOoT9dO2cWIdR1cvxDf-118" source="BtOoT9dO2cWIdR1cvxDf-130" target="BtOoT9dO2cWIdR1cvxDf-157" edge="1">
          <mxGeometry relative="1" as="geometry" />
        </mxCell>
        <mxCell id="BtOoT9dO2cWIdR1cvxDf-130" value="Has Required Function?" style="rhombus;whiteSpace=wrap;html=1;fontSize=15;fillColor=#f9f7ed;strokeColor=#36393d;" parent="BtOoT9dO2cWIdR1cvxDf-118" vertex="1">
          <mxGeometry x="989" y="311.5" width="80" height="80" as="geometry" />
        </mxCell>
        <mxCell id="BtOoT9dO2cWIdR1cvxDf-131" value="" style="edgeStyle=orthogonalEdgeStyle;rounded=0;orthogonalLoop=1;jettySize=auto;html=1;" parent="BtOoT9dO2cWIdR1cvxDf-118" source="BtOoT9dO2cWIdR1cvxDf-132" target="BtOoT9dO2cWIdR1cvxDf-135" edge="1">
          <mxGeometry relative="1" as="geometry" />
        </mxCell>
        <mxCell id="BtOoT9dO2cWIdR1cvxDf-132" value="Generate Tasks" style="whiteSpace=wrap;html=1;fontSize=15;" parent="BtOoT9dO2cWIdR1cvxDf-118" vertex="1">
          <mxGeometry x="1369" y="321.5" width="120" height="60" as="geometry" />
        </mxCell>
        <mxCell id="BtOoT9dO2cWIdR1cvxDf-133" value="" style="edgeStyle=orthogonalEdgeStyle;rounded=0;orthogonalLoop=1;jettySize=auto;html=1;" parent="BtOoT9dO2cWIdR1cvxDf-118" source="BtOoT9dO2cWIdR1cvxDf-120" target="BtOoT9dO2cWIdR1cvxDf-132" edge="1">
          <mxGeometry relative="1" as="geometry" />
        </mxCell>
        <mxCell id="BtOoT9dO2cWIdR1cvxDf-134" value="&lt;font style=&quot;font-size: 15px;&quot;&gt;Agent&lt;/font&gt;" style="edgeStyle=orthogonalEdgeStyle;rounded=0;orthogonalLoop=1;jettySize=auto;html=1;" parent="BtOoT9dO2cWIdR1cvxDf-118" source="BtOoT9dO2cWIdR1cvxDf-135" target="BtOoT9dO2cWIdR1cvxDf-144" edge="1">
          <mxGeometry relative="1" as="geometry" />
        </mxCell>
        <mxCell id="BtOoT9dO2cWIdR1cvxDf-135" value="&lt;font style=&quot;font-size: 11px;&quot;&gt;Can an AI agent handle the task?&lt;/font&gt;" style="rhombus;whiteSpace=wrap;html=1;fontSize=15;fillColor=#f9f7ed;strokeColor=#36393d;align=center;" parent="BtOoT9dO2cWIdR1cvxDf-118" vertex="1">
          <mxGeometry x="1559" y="311.5" width="80" height="80" as="geometry" />
        </mxCell>
        <mxCell id="BtOoT9dO2cWIdR1cvxDf-136" value="Work on ticket" style="whiteSpace=wrap;html=1;fontSize=15;" parent="BtOoT9dO2cWIdR1cvxDf-118" vertex="1">
          <mxGeometry x="1959" y="132" width="120" height="60" as="geometry" />
        </mxCell>
        <mxCell id="BtOoT9dO2cWIdR1cvxDf-137" value="" style="edgeStyle=orthogonalEdgeStyle;rounded=0;orthogonalLoop=1;jettySize=auto;html=1;" parent="BtOoT9dO2cWIdR1cvxDf-118" source="BtOoT9dO2cWIdR1cvxDf-138" target="BtOoT9dO2cWIdR1cvxDf-141" edge="1">
          <mxGeometry relative="1" as="geometry" />
        </mxCell>
        <mxCell id="BtOoT9dO2cWIdR1cvxDf-138" value="Assign to a Human" style="whiteSpace=wrap;html=1;fontSize=15;" parent="BtOoT9dO2cWIdR1cvxDf-118" vertex="1">
          <mxGeometry x="1539" y="132" width="120" height="60" as="geometry" />
        </mxCell>
        <mxCell id="BtOoT9dO2cWIdR1cvxDf-139" value="&lt;font style=&quot;font-size: 15px;&quot;&gt;Human&lt;/font&gt;" style="edgeStyle=orthogonalEdgeStyle;rounded=0;orthogonalLoop=1;jettySize=auto;html=1;" parent="BtOoT9dO2cWIdR1cvxDf-118" source="BtOoT9dO2cWIdR1cvxDf-135" target="BtOoT9dO2cWIdR1cvxDf-138" edge="1">
          <mxGeometry relative="1" as="geometry" />
        </mxCell>
        <mxCell id="BtOoT9dO2cWIdR1cvxDf-140" value="" style="edgeStyle=orthogonalEdgeStyle;rounded=0;orthogonalLoop=1;jettySize=auto;html=1;" parent="BtOoT9dO2cWIdR1cvxDf-118" source="BtOoT9dO2cWIdR1cvxDf-141" target="BtOoT9dO2cWIdR1cvxDf-136" edge="1">
          <mxGeometry relative="1" as="geometry" />
        </mxCell>
        <mxCell id="BtOoT9dO2cWIdR1cvxDf-141" value="Move to ToDo" style="whiteSpace=wrap;html=1;fontSize=15;" parent="BtOoT9dO2cWIdR1cvxDf-118" vertex="1">
          <mxGeometry x="1739" y="132" width="120" height="60" as="geometry" />
        </mxCell>
        <mxCell id="BtOoT9dO2cWIdR1cvxDf-142" value="" style="edgeStyle=orthogonalEdgeStyle;rounded=0;orthogonalLoop=1;jettySize=auto;html=1;" parent="BtOoT9dO2cWIdR1cvxDf-118" source="BtOoT9dO2cWIdR1cvxDf-136" target="BtOoT9dO2cWIdR1cvxDf-143" edge="1">
          <mxGeometry relative="1" as="geometry" />
        </mxCell>
        <mxCell id="BtOoT9dO2cWIdR1cvxDf-143" value="" style="ellipse;whiteSpace=wrap;html=1;fontSize=15;strokeWidth=5;fillColor=#ffcccc;strokeColor=#36393d;" parent="BtOoT9dO2cWIdR1cvxDf-118" vertex="1">
          <mxGeometry x="2559" y="122" width="80" height="80" as="geometry" />
        </mxCell>
        <mxCell id="BtOoT9dO2cWIdR1cvxDf-144" value="Assign task to agent(s)" style="whiteSpace=wrap;html=1;fontSize=15;" parent="BtOoT9dO2cWIdR1cvxDf-118" vertex="1">
          <mxGeometry x="1739" y="322" width="120" height="60" as="geometry" />
        </mxCell>
        <mxCell id="BtOoT9dO2cWIdR1cvxDf-145" value="Work on task" style="whiteSpace=wrap;html=1;fontSize=15;" parent="BtOoT9dO2cWIdR1cvxDf-118" vertex="1">
          <mxGeometry x="1959" y="322" width="120" height="60" as="geometry" />
        </mxCell>
        <mxCell id="BtOoT9dO2cWIdR1cvxDf-146" value="" style="edgeStyle=orthogonalEdgeStyle;rounded=0;orthogonalLoop=1;jettySize=auto;html=1;" parent="BtOoT9dO2cWIdR1cvxDf-118" source="BtOoT9dO2cWIdR1cvxDf-144" target="BtOoT9dO2cWIdR1cvxDf-145" edge="1">
          <mxGeometry relative="1" as="geometry" />
        </mxCell>
        <mxCell id="BtOoT9dO2cWIdR1cvxDf-147" value="" style="edgeStyle=orthogonalEdgeStyle;rounded=0;orthogonalLoop=1;jettySize=auto;html=1;" parent="BtOoT9dO2cWIdR1cvxDf-118" source="BtOoT9dO2cWIdR1cvxDf-148" target="BtOoT9dO2cWIdR1cvxDf-150" edge="1">
          <mxGeometry relative="1" as="geometry" />
        </mxCell>
        <mxCell id="BtOoT9dO2cWIdR1cvxDf-148" value="Save output and&amp;nbsp;" style="whiteSpace=wrap;html=1;fontSize=15;" parent="BtOoT9dO2cWIdR1cvxDf-118" vertex="1">
          <mxGeometry x="2159" y="322" width="120" height="60" as="geometry" />
        </mxCell>
        <mxCell id="BtOoT9dO2cWIdR1cvxDf-149" value="" style="edgeStyle=orthogonalEdgeStyle;rounded=0;orthogonalLoop=1;jettySize=auto;html=1;" parent="BtOoT9dO2cWIdR1cvxDf-118" source="BtOoT9dO2cWIdR1cvxDf-145" target="BtOoT9dO2cWIdR1cvxDf-148" edge="1">
          <mxGeometry relative="1" as="geometry" />
        </mxCell>
        <mxCell id="BtOoT9dO2cWIdR1cvxDf-150" value="Mark as Done" style="whiteSpace=wrap;html=1;fontSize=15;" parent="BtOoT9dO2cWIdR1cvxDf-118" vertex="1">
          <mxGeometry x="2359" y="322" width="120" height="60" as="geometry" />
        </mxCell>
        <mxCell id="BtOoT9dO2cWIdR1cvxDf-151" value="&lt;font style=&quot;font-size: 15px;&quot;&gt;Yes&lt;/font&gt;" style="edgeStyle=orthogonalEdgeStyle;rounded=0;orthogonalLoop=1;jettySize=auto;html=1;" parent="BtOoT9dO2cWIdR1cvxDf-118" source="BtOoT9dO2cWIdR1cvxDf-152" target="BtOoT9dO2cWIdR1cvxDf-143" edge="1">
          <mxGeometry relative="1" as="geometry" />
        </mxCell>
        <mxCell id="BtOoT9dO2cWIdR1cvxDf-152" value="Are all tasks complete" style="rhombus;whiteSpace=wrap;html=1;fontSize=15;fillColor=#f9f7ed;strokeColor=#36393d;" parent="BtOoT9dO2cWIdR1cvxDf-118" vertex="1">
          <mxGeometry x="2559" y="312" width="80" height="80" as="geometry" />
        </mxCell>
        <mxCell id="BtOoT9dO2cWIdR1cvxDf-153" value="" style="edgeStyle=orthogonalEdgeStyle;rounded=0;orthogonalLoop=1;jettySize=auto;html=1;" parent="BtOoT9dO2cWIdR1cvxDf-118" source="BtOoT9dO2cWIdR1cvxDf-150" target="BtOoT9dO2cWIdR1cvxDf-152" edge="1">
          <mxGeometry relative="1" as="geometry" />
        </mxCell>
        <mxCell id="BtOoT9dO2cWIdR1cvxDf-154" value="Trigger next task" style="whiteSpace=wrap;html=1;fontSize=15;" parent="BtOoT9dO2cWIdR1cvxDf-118" vertex="1">
          <mxGeometry x="2259" y="482" width="120" height="60" as="geometry" />
        </mxCell>
        <mxCell id="BtOoT9dO2cWIdR1cvxDf-155" value="&lt;font style=&quot;font-size: 15px;&quot;&gt;No&lt;/font&gt;" style="edgeStyle=orthogonalEdgeStyle;rounded=0;orthogonalLoop=1;jettySize=auto;html=1;" parent="BtOoT9dO2cWIdR1cvxDf-118" source="BtOoT9dO2cWIdR1cvxDf-152" target="BtOoT9dO2cWIdR1cvxDf-154" edge="1">
          <mxGeometry x="-0.6471" relative="1" as="geometry">
            <Array as="points">
              <mxPoint x="2599" y="512" />
            </Array>
            <mxPoint as="offset" />
          </mxGeometry>
        </mxCell>
        <mxCell id="BtOoT9dO2cWIdR1cvxDf-156" style="edgeStyle=orthogonalEdgeStyle;rounded=0;orthogonalLoop=1;jettySize=auto;html=1;" parent="BtOoT9dO2cWIdR1cvxDf-118" source="BtOoT9dO2cWIdR1cvxDf-154" target="BtOoT9dO2cWIdR1cvxDf-145" edge="1">
          <mxGeometry relative="1" as="geometry" />
        </mxCell>
        <mxCell id="BtOoT9dO2cWIdR1cvxDf-157" value="&lt;font style=&quot;font-size: 15px;&quot;&gt;Notify agent to create function&amp;nbsp;&lt;/font&gt;" style="whiteSpace=wrap;html=1;" parent="BtOoT9dO2cWIdR1cvxDf-118" vertex="1">
          <mxGeometry x="969" y="173" width="120" height="60" as="geometry" />
        </mxCell>
        <mxCell id="BtOoT9dO2cWIdR1cvxDf-158" style="edgeStyle=orthogonalEdgeStyle;rounded=0;orthogonalLoop=1;jettySize=auto;html=1;entryX=0;entryY=0.5;entryDx=0;entryDy=0;" parent="BtOoT9dO2cWIdR1cvxDf-118" source="BtOoT9dO2cWIdR1cvxDf-160" target="BtOoT9dO2cWIdR1cvxDf-138" edge="1">
          <mxGeometry relative="1" as="geometry" />
        </mxCell>
        <mxCell id="BtOoT9dO2cWIdR1cvxDf-159" value="&lt;font style=&quot;font-size: 15px;&quot;&gt;Yes&lt;/font&gt;" style="edgeLabel;html=1;align=center;verticalAlign=middle;resizable=0;points=[];" parent="BtOoT9dO2cWIdR1cvxDf-158" connectable="0" vertex="1">
          <mxGeometry x="-0.8417" relative="1" as="geometry">
            <mxPoint as="offset" />
          </mxGeometry>
        </mxCell>
        <mxCell id="BtOoT9dO2cWIdR1cvxDf-160" value="Has Agent timed out&amp;nbsp;" style="rhombus;whiteSpace=wrap;html=1;fillColor=#f9f7ed;strokeColor=#36393d;" parent="BtOoT9dO2cWIdR1cvxDf-118" vertex="1">
          <mxGeometry x="989" y="59" width="80" height="80" as="geometry" />
        </mxCell>
        <mxCell id="BtOoT9dO2cWIdR1cvxDf-161" value="" style="edgeStyle=orthogonalEdgeStyle;rounded=0;orthogonalLoop=1;jettySize=auto;html=1;" parent="BtOoT9dO2cWIdR1cvxDf-118" source="BtOoT9dO2cWIdR1cvxDf-157" target="BtOoT9dO2cWIdR1cvxDf-160" edge="1">
          <mxGeometry relative="1" as="geometry" />
        </mxCell>
        <mxCell id="BtOoT9dO2cWIdR1cvxDf-162" style="edgeStyle=orthogonalEdgeStyle;rounded=0;orthogonalLoop=1;jettySize=auto;html=1;entryX=0;entryY=0.5;entryDx=0;entryDy=0;" parent="1" source="BtOoT9dO2cWIdR1cvxDf-160" target="BtOoT9dO2cWIdR1cvxDf-68" edge="1">
          <mxGeometry relative="1" as="geometry">
            <Array as="points">
              <mxPoint x="660" y="1990" />
              <mxPoint x="660" y="883" />
            </Array>
          </mxGeometry>
        </mxCell>
        <mxCell id="BtOoT9dO2cWIdR1cvxDf-163" value="&lt;font style=&quot;font-size: 15px;&quot;&gt;No&lt;/font&gt;" style="edgeLabel;html=1;align=center;verticalAlign=middle;resizable=0;points=[];" parent="BtOoT9dO2cWIdR1cvxDf-162" connectable="0" vertex="1">
          <mxGeometry x="-0.9038" y="1" relative="1" as="geometry">
            <mxPoint as="offset" />
          </mxGeometry>
        </mxCell>
        <mxCell id="BtOoT9dO2cWIdR1cvxDf-164" value="&lt;font style=&quot;font-size: 15px;&quot;&gt;No&lt;/font&gt;" style="edgeStyle=orthogonalEdgeStyle;rounded=0;orthogonalLoop=1;jettySize=auto;html=1;endArrow=none;startFill=0;" parent="1" source="BtOoT9dO2cWIdR1cvxDf-94" edge="1">
          <mxGeometry x="-0.5661" relative="1" as="geometry">
            <mxPoint x="660" y="1743" as="targetPoint" />
            <mxPoint x="1" as="offset" />
          </mxGeometry>
        </mxCell>
      </root>
    </mxGraphModel>
  </diagram>
</mxfile>
